<svg xmlns="http://www.w3.org/2000/svg" version="1.1" xmlns:xlink="http://www.w3.org/1999/xlink" xmlns:svgjs="http://svgjs.com/svgjs" width="1920" height="1080" preserveAspectRatio="none" viewBox="0 0 1920 1080"><g mask="url(&quot;#SvgjsMask1078&quot;)" fill="none"><rect width="1920" height="1080" x="0" y="0" fill="#0e2a47"></rect><path d="M0,774.126C152.9,799.699,330.348,798.604,449.486,699.414C567.46,601.193,550.702,419.441,600.445,274.214C644.356,146.013,733.477,31.029,724.74,-104.202C715.702,-244.083,640.105,-369.279,551.834,-478.167C461.396,-589.727,347.701,-677.48,215.167,-732.792C71.252,-792.854,-85.125,-842.473,-237.078,-807.413C-392.719,-771.502,-520.347,-662.198,-622.608,-539.493C-723.543,-418.379,-776.693,-270.35,-812.599,-116.834C-851.368,48.924,-932.289,240.898,-838.337,382.856C-742.71,527.345,-519.244,490.371,-362.236,563.65C-233.076,623.932,-140.582,750.613,0,774.126" fill="#0b2239"></path><path d="M1920 1762.462C2048.909 1764.499 2164.046 1697.633 2277.091 1635.645 2397.878 1569.411 2543.6710000000003 1516.245 2599.042 1390.108 2654.303 1264.222 2604.715 1118.277 2561.494 987.767 2523.676 873.573 2437.143 790.268 2367.832 691.951 2289.493 580.829 2253.184 424.932 2127.742 372.496 2001.046 319.53599999999994 1856.361 376.92600000000004 1727.46 424.27 1605.046 469.231 1493.895 538.221 1408.404 636.7 1322.8600000000001 735.241 1282.854 858.451 1242.746 982.626 1194.9299999999998 1130.664 1081.242 1292.184 1151.921 1430.77 1223.156 1570.4470000000001 1426.144 1562.312 1570.088 1624.4740000000002 1687.5720000000001 1675.2089999999998 1792.045 1760.44 1920 1762.462" fill="#113255"></path></g><defs><mask id="SvgjsMask1078"><rect width="1920" height="1080" fill="#ffffff"></rect></mask></defs></svg>